<svg viewBox="0 0 24 24" xmlns="http://www.w3.org/2000/svg"><path fill="#fc3" d="M14.973 19.238h.915v-1.905c.12.022.278.03.45.03.653 0 1.23-.173 1.598-.54.285-.27.435-.668.435-1.148 0-.472-.195-.87-.495-1.117-.323-.27-.818-.413-1.493-.413-.622 0-1.08.045-1.41.105v4.988zm.915-4.343c.098-.022.278-.045.533-.045.637 0 1.027.3 1.027.863 0 .592-.42.93-1.11.93-.187 0-.337-.008-.45-.038v-1.71zm-1.86 1.553h-1.785v.727h.893v1.26c-.12.06-.368.105-.698.105-1.05 0-1.755-.682-1.755-1.83 0-1.177.758-1.815 1.838-1.815.532 0 .87.098 1.147.218l.203-.743c-.233-.112-.72-.24-1.343-.24-1.672 0-2.812 1.028-2.812 2.625-.008.765.255 1.433.705 1.86.48.458 1.125.675 1.98.675a5 5 0 0 0 1.627-.285v-2.557zm-8.24 2.79h.916v-1.905c.12.022.277.03.45.03.652 0 1.23-.173 1.597-.54.285-.27.435-.668.435-1.148 0-.472-.195-.87-.495-1.117-.322-.27-.817-.413-1.492-.413-.623 0-1.08.045-1.41.105v4.988zm.916-4.343c.097-.022.277-.045.532-.045.638 0 1.028.3 1.028.863 0 .592-.42.93-1.11.93-.188 0-.338-.008-.45-.038v-1.71zM12 3c-1.66 0-3 1.34-3 3v2h6V6c0-1.66-1.34-3-3-3zm6 5c1.1 0 2 .9 2 2v10c0 1.1-.9 2-2 2H6c-1.1 0-2-.9-2-2V10a2 2 0 0 1 2-2h1V6c0-2.76 2.24-5 5-5s5 2.24 5 5v2h1"/></svg>